<svg width="32" height="32" viewBox="0 0 32 32" fill="none" xmlns="http://www.w3.org/2000/svg">
<path d="M14 2.5H28V29.5H14" stroke="black" stroke-width="3" stroke-linecap="round"/>
<rect x="16" y="6" width="4" height="3" fill="#D9D9D9"/>
<rect x="16" y="10" width="4" height="3" fill="#D9D9D9"/>
<rect x="21" y="6" width="4" height="3" fill="#D9D9D9"/>
<rect x="21" y="10" width="4" height="3" fill="#D9D9D9"/>
<rect x="23" y="17" width="2" height="1" fill="#D9D9D9"/>
<path d="M19.7071 17.7071C20.0976 17.3166 20.0976 16.6834 19.7071 16.2929L13.3431 9.92893C12.9526 9.53841 12.3195 9.53841 11.9289 9.92893C11.5384 10.3195 11.5384 10.9526 11.9289 11.3431L17.5858 17L11.9289 22.6569C11.5384 23.0474 11.5384 23.6805 11.9289 24.0711C12.3195 24.4616 12.9526 24.4616 13.3431 24.0711L19.7071 17.7071ZM2 17V18H19V17V16H2V17Z" fill="black"/>
</svg>
