<svg width="32" height="32" viewBox="0 0 32 32" fill="none" xmlns="http://www.w3.org/2000/svg">
<path d="M18 2.5H4V29.5H18" stroke="black" stroke-width="3" stroke-linecap="round"/>
<rect width="4" height="3" transform="matrix(-1 0 0 1 16 6)" fill="#D9D9D9"/>
<rect width="4" height="3" transform="matrix(-1 0 0 1 16 10)" fill="#D9D9D9"/>
<rect width="4" height="3" transform="matrix(-1 0 0 1 11 6)" fill="#D9D9D9"/>
<rect width="4" height="3" transform="matrix(-1 0 0 1 11 10)" fill="#D9D9D9"/>
<rect width="2" height="1" transform="matrix(-1 0 0 1 9 17)" fill="#D9D9D9"/>
<path d="M12.2929 17.7071C11.9024 17.3166 11.9024 16.6834 12.2929 16.2929L18.6569 9.92893C19.0474 9.53841 19.6805 9.53841 20.0711 9.92893C20.4616 10.3195 20.4616 10.9526 20.0711 11.3431L14.4142 17L20.0711 22.6569C20.4616 23.0474 20.4616 23.6805 20.0711 24.0711C19.6805 24.4616 19.0474 24.4616 18.6569 24.0711L12.2929 17.7071ZM30 17V18H13V17V16H30V17Z" fill="black"/>
</svg>
